<svg xmlns="http://www.w3.org/2000/svg" viewBox="0 0 1200 630" width="1200" height="630" role="img" aria-label="Cover image: Locksmith website cost in 2026, four pricing tiers: DIY builder, freelancer, agency, Front Step Sites at 99 dollars a year">
  <rect width="1200" height="630" fill="#eceeec"/>
  <rect x="46" y="46" width="1120" height="550" fill="#111312"/>
  <rect x="40" y="40" width="1120" height="550" fill="#ffffff" stroke="#111312" stroke-width="3"/>
  <g transform="translate(1030,66)">
    <rect width="34" height="34" fill="#ffd60a"/>
    <path d="M6 27h22v-5H17v-5h-5v-5H6z" fill="#111312"/>
  </g>
  <text x="80" y="98" font-family="Arial, sans-serif" font-size="22" font-weight="700" letter-spacing="2" fill="#474d4b">FRONT STEP SITES BLOG</text>
  <text x="78" y="260" font-family="Arial, sans-serif" font-size="72" font-weight="800" fill="#111312">Locksmith</text>
  <text x="80" y="318" font-family="Arial, sans-serif" font-size="40" font-weight="700" fill="#474d4b">website cost in 2026</text>
  <g transform="translate(80,430)">
    <rect x="0" y="0" width="235" height="130" fill="#ffffff" stroke="#111312" stroke-width="2"/>
    <text x="18" y="34" font-family="Arial, sans-serif" font-size="17" font-weight="700" letter-spacing="1" fill="#111312">DIY BUILDER</text>
    <text x="18" y="70" font-family="Arial, sans-serif" font-size="20" font-weight="600" fill="#474d4b">You build it</text>
  </g>
  <g transform="translate(335,430)">
    <rect x="0" y="0" width="235" height="130" fill="#ffffff" stroke="#111312" stroke-width="2"/>
    <text x="18" y="34" font-family="Arial, sans-serif" font-size="17" font-weight="700" letter-spacing="1" fill="#111312">FREELANCER</text>
    <text x="18" y="70" font-family="Arial, sans-serif" font-size="20" font-weight="600" fill="#474d4b">Custom, 1 person</text>
  </g>
  <g transform="translate(590,430)">
    <rect x="0" y="0" width="235" height="130" fill="#ffffff" stroke="#111312" stroke-width="2"/>
    <text x="18" y="34" font-family="Arial, sans-serif" font-size="17" font-weight="700" letter-spacing="1" fill="#111312">AGENCY</text>
    <text x="18" y="70" font-family="Arial, sans-serif" font-size="20" font-weight="600" fill="#474d4b">Custom, a team</text>
  </g>
  <g transform="translate(845,430)">
    <rect x="0" y="0" width="235" height="130" fill="#ffd60a" stroke="#111312" stroke-width="2"/>
    <text x="18" y="34" font-family="Arial, sans-serif" font-size="16" font-weight="700" letter-spacing="1" fill="#111312">FRONT STEP SITES</text>
    <text x="18" y="70" font-family="Arial, sans-serif" font-size="20" font-weight="700" fill="#111312">9/yr, done for you</text>
  </g>
</svg>
